<svg xmlns="http://www.w3.org/2000/svg" viewBox="0 0 1024 1024">
    <circle cx="512" cy="512" r="512" style="fill:#003087"/>
    <path d="M711.97 390.756c6.458-41.18-.044-69.203-22.317-94.582-24.523-27.943-68.824-39.914-125.504-39.914H399.621c-11.589 0-21.449 8.429-23.254 19.872l-68.512 434.439c-1.352 8.571 5.275 16.322 13.951 16.322h101.573l-7.009 44.457c-1.183 7.499 4.611 14.28 12.205 14.28h85.613c10.133 0 18.761-7.374 20.341-17.383l.838-4.351 16.13-102.273 1.04-5.652c1.577-10.009 10.204-17.383 20.338-17.383h12.809c82.94 0 147.884-33.698 166.861-131.149 7.928-40.72 3.829-74.71-17.14-98.604-6.342-7.229-14.232-13.207-23.435-18.079Z" style="fill:#7b8fbe"/>
    <path d="M711.97 390.756c6.458-41.18-.044-69.203-22.317-94.582-24.523-27.943-68.824-39.914-125.504-39.914H399.621c-11.589 0-21.449 8.429-23.254 19.872l-68.512 434.439c-1.352 8.571 5.275 16.322 13.951 16.322h101.573l25.516-161.79-.792 5.071c1.805-11.44 11.586-19.866 23.169-19.866h48.274c94.81 0 169.049-38.521 190.741-149.92a262.16 262.16 0 0 0 1.683-9.632Z" style="fill:#b4c2db"/>
    <path d="M476.304 391.301a20.58 20.58 0 0 1 20.341-17.383h128.968c15.279 0 29.523.999 42.549 3.097 3.722.599 7.344 1.287 10.862 2.069a160.2 160.2 0 0 1 10.24 2.62c1.654.483 3.278.99 4.879 1.521 6.393 2.122 12.347 4.626 17.827 7.531 6.458-41.18-.044-69.203-22.317-94.582-24.523-27.943-68.824-39.914-125.504-39.914H399.621c-11.589 0-21.449 8.429-23.254 19.872l-68.512 434.439c-1.352 8.571 5.275 16.322 13.951 16.322h101.573l25.516-161.79 27.409-173.802Z" style="fill:#fff"/>
</svg>
